<svg width="15" height="13" viewBox="0 0 15 13" fill="none" xmlns="http://www.w3.org/2000/svg">
<path d="M15 6.25C14.9994 5.58771 14.8112 4.93914 14.4572 4.37935C14.1033 3.81957 13.5981 3.37146 13 3.08688V3C12.9995 2.35576 12.7915 1.72882 12.407 1.21195C12.0224 0.695069 11.4817 0.315716 10.8648 0.130017C10.2479 -0.0556826 9.5876 -0.0378625 8.98162 0.18084C8.37564 0.399543 7.85616 0.807509 7.50004 1.34438C7.14393 0.807509 6.62445 0.399543 6.01847 0.18084C5.41248 -0.0378625 4.7522 -0.0556826 4.1353 0.130017C3.51841 0.315716 2.97768 0.695069 2.59312 1.21195C2.20857 1.72882 2.00062 2.35576 2.00004 3V3.08688C1.4015 3.37068 0.895789 3.81851 0.541672 4.37833C0.187554 4.93814 -0.000427246 5.58696 -0.000427246 6.24937C-0.000427246 6.91179 0.187554 7.56061 0.541672 8.12042C0.895789 8.68024 1.4015 9.12807 2.00004 9.41187V9.5C2.00062 10.1442 2.20857 10.7712 2.59312 11.2881C2.97768 11.8049 3.51841 12.1843 4.1353 12.37C4.7522 12.5557 5.41248 12.5379 6.01847 12.3192C6.62445 12.1005 7.14393 11.6925 7.50004 11.1556C7.85616 11.6925 8.37564 12.1005 8.98162 12.3192C9.5876 12.5379 10.2479 12.5557 10.8648 12.37C11.4817 12.1843 12.0224 11.8049 12.407 11.2881C12.7915 10.7712 12.9995 10.1442 13 9.5V9.41187C13.598 9.12751 14.1032 8.67962 14.4571 8.12005C14.8111 7.56048 14.9993 6.91211 15 6.25ZM5.00004 11.5C4.50688 11.4999 4.03114 11.3177 3.66418 10.9882C3.29722 10.6587 3.06493 10.2053 3.01192 9.715C3.17361 9.73807 3.33672 9.74976 3.50004 9.75H4.00004C4.13265 9.75 4.25983 9.69732 4.3536 9.60355C4.44736 9.50979 4.50004 9.38261 4.50004 9.25C4.50004 9.11739 4.44736 8.99021 4.3536 8.89645C4.25983 8.80268 4.13265 8.75 4.00004 8.75H3.50004C2.90977 8.75069 2.33829 8.5425 1.88678 8.16228C1.43527 7.78206 1.13286 7.25434 1.03309 6.67256C0.93332 6.09078 1.04262 5.49246 1.34165 4.98353C1.64068 4.4746 2.11014 4.08789 2.66692 3.89188C2.76434 3.85738 2.84868 3.79355 2.90833 3.70916C2.96799 3.62477 3.00003 3.52397 3.00004 3.42063V3C3.00004 2.46957 3.21076 1.96086 3.58583 1.58579C3.9609 1.21071 4.46961 1 5.00004 1C5.53048 1 6.03918 1.21071 6.41426 1.58579C6.78933 1.96086 7.00004 2.46957 7.00004 3V7.26625C6.45099 6.77243 5.7385 6.49946 5.00004 6.5C4.86743 6.5 4.74026 6.55268 4.64649 6.64645C4.55272 6.74021 4.50004 6.86739 4.50004 7C4.50004 7.13261 4.55272 7.25979 4.64649 7.35355C4.74026 7.44732 4.86743 7.5 5.00004 7.5C5.53048 7.5 6.03918 7.71071 6.41426 8.08579C6.78933 8.46086 7.00004 8.96957 7.00004 9.5C7.00004 10.0304 6.78933 10.5391 6.41426 10.9142C6.03918 11.2893 5.53048 11.5 5.00004 11.5ZM11.5 8.75H11C10.8674 8.75 10.7403 8.80268 10.6465 8.89645C10.5527 8.99021 10.5 9.11739 10.5 9.25C10.5 9.38261 10.5527 9.50979 10.6465 9.60355C10.7403 9.69732 10.8674 9.75 11 9.75H11.5C11.6634 9.74976 11.8265 9.73807 11.9882 9.715C11.9466 10.0992 11.7947 10.4631 11.5507 10.7627C11.3068 11.0624 10.9812 11.2849 10.6135 11.4035C10.2457 11.5221 9.85146 11.5316 9.47841 11.4309C9.10536 11.3301 8.76948 11.1235 8.51137 10.8359C8.25327 10.5484 8.08399 10.1922 8.024 9.81048C7.96402 9.42876 8.01589 9.03783 8.17336 8.68497C8.33083 8.3321 8.58714 8.03241 8.91132 7.82212C9.23549 7.61183 9.61364 7.49994 10 7.5C10.1327 7.5 10.2598 7.44732 10.3536 7.35355C10.4474 7.25979 10.5 7.13261 10.5 7C10.5 6.86739 10.4474 6.74021 10.3536 6.64645C10.2598 6.55268 10.1327 6.5 10 6.5C9.26159 6.49946 8.5491 6.77243 8.00004 7.26625V3C8.00004 2.46957 8.21076 1.96086 8.58583 1.58579C8.9609 1.21071 9.46961 1 10 1C10.5305 1 11.0392 1.21071 11.4143 1.58579C11.7893 1.96086 12 2.46957 12 3V3.42063C12.0001 3.52397 12.0321 3.62477 12.0918 3.70916C12.1514 3.79355 12.2357 3.85738 12.3332 3.89188C12.8899 4.08789 13.3594 4.4746 13.6584 4.98353C13.9575 5.49246 14.0668 6.09078 13.967 6.67256C13.8672 7.25434 13.5648 7.78206 13.1133 8.16228C12.6618 8.5425 12.0903 8.75069 11.5 8.75ZM12.5 5.5C12.5 5.63261 12.4474 5.75979 12.3536 5.85355C12.2598 5.94732 12.1327 6 12 6H11.75C11.1533 6 10.581 5.76295 10.1591 5.34099C9.7371 4.91903 9.50004 4.34674 9.50004 3.75V3.5C9.50004 3.36739 9.55272 3.24022 9.64649 3.14645C9.74026 3.05268 9.86743 3 10 3C10.1327 3 10.2598 3.05268 10.3536 3.14645C10.4474 3.24022 10.5 3.36739 10.5 3.5V3.75C10.5 4.08152 10.6317 4.39946 10.8662 4.63388C11.1006 4.8683 11.4185 5 11.75 5H12C12.1327 5 12.2598 5.05268 12.3536 5.14645C12.4474 5.24021 12.5 5.36739 12.5 5.5ZM3.25004 6H3.00004C2.86743 6 2.74026 5.94732 2.64649 5.85355C2.55272 5.75979 2.50004 5.63261 2.50004 5.5C2.50004 5.36739 2.55272 5.24021 2.64649 5.14645C2.74026 5.05268 2.86743 5 3.00004 5H3.25004C3.58156 5 3.8995 4.8683 4.13393 4.63388C4.36835 4.39946 4.50004 4.08152 4.50004 3.75V3.5C4.50004 3.36739 4.55272 3.24022 4.64649 3.14645C4.74026 3.05268 4.86743 3 5.00004 3C5.13265 3 5.25983 3.05268 5.3536 3.14645C5.44736 3.24022 5.50004 3.36739 5.50004 3.5V3.75C5.50004 4.34674 5.26299 4.91903 4.84103 5.34099C4.41908 5.76295 3.84678 6 3.25004 6Z" fill="white"/>
</svg>
